<?xml version="1.0" encoding="UTF-8" standalone="no"?>
<svg width="143px" height="60px" viewBox="0 0 143 60" version="1.1" xmlns="http://www.w3.org/2000/svg" xmlns:xlink="http://www.w3.org/1999/xlink">
    <!-- Generator: Sketch 3.6.1 (26313) - http://www.bohemiancoding.com/sketch -->
    <title>US</title>
    <desc>Created with Sketch.</desc>
    <defs>
        <path id="path-1" d="M0,57.896648 L140.889327,57.896648 L140.889327,0.172114525 L0,0.172114525 L0,57.896648 Z"></path>
    </defs>
    <g id="Page-1" stroke="none" stroke-width="1" fill="none" fill-rule="evenodd">
        <g id="US">
            <g id="US-Logo" transform="translate(1.000000, 1.000000)">
                <path d="M120.049172,22.6548008 L99.209136,9.63238743 L99.209136,13.1499042 L120.049172,26.1727115 L140.889603,13.1499042 L140.889603,9.63238743 L120.049172,22.6548008 Z" id="Fill-1" fill="#F9991C"></path>
                <g id="Group-56" transform="translate(0.000000, 0.221740)">
                    <path d="M128.222525,14.0973612 L131.291047,12.1796824 L131.29341,12.1796824 C128.872779,8.54558464 124.737698,6.15094777 120.042949,6.15094777 C115.352927,6.15094777 111.220997,8.54164609 108.799578,12.1706237 L108.818483,12.172593 C108.981933,12.0237159 109.148139,11.8775958 109.319072,11.7354142 C115.167422,6.88785 123.609304,7.95204553 128.222525,14.0973612 L128.222525,14.0973612 Z" id="Fill-2" fill="#F9991C"></path>
                    <path d="M113.889835,15.3201226 C114.991841,14.5465919 116.267143,14.1019299 117.628699,14.1019299 C119.868157,14.1019299 121.877997,15.3004299 123.257277,17.2007791 L126.217095,15.3508433 L126.218671,15.3508433 C124.857903,13.4040193 122.599539,12.1295053 120.043028,12.1295053 C117.500302,12.1295053 115.253361,13.3902344 113.889835,15.3201226" id="Fill-4" fill="#F9991C"></path>
                    <path id="Fill-6" fill="#F9991C" d="M136.366799,9.01222374 L136.366299,9.01222374 L136.366799,9.01272374 L136.366799,9.01222374 Z"></path>
                    <path d="M105.956971,6.87800363 C114.53749,0.0855846369 126.680426,1.90558743 133.147521,10.9248612 L133.190451,10.9910288 L136.366496,9.01230251 C132.887577,3.68935559 126.876172,0.172232682 120.043186,0.172232682 C113.305513,0.172232682 107.237786,3.65509022 103.727359,9.00088073 C104.372099,8.32187514 105.207859,7.47114888 105.956971,6.87800363" id="Fill-8" fill="#F9991C"></path>
                    <path d="M5.08084441,50.8322723 C5.08084441,51.082764 5.0426405,51.3198645 4.96702039,51.543574 C4.89100642,51.7672835 4.77363771,51.9646047 4.61412654,52.1355377 C4.45500922,52.3060768 4.25571872,52.4407751 4.01664888,52.5392388 C3.77757905,52.6380964 3.49872989,52.6873282 3.1801014,52.6873282 C2.7779757,52.6873282 2.47076899,52.5928031 2.25808743,52.4025712 C2.04579972,52.2131271 1.93945894,51.947669 1.93945894,51.6061969 C1.93945894,51.3253785 2.0024757,51.1032444 2.12732765,50.9401885 C2.25257346,50.7771327 2.44635,50.6522807 2.70786955,50.564845 C2.96978296,50.4778031 3.29786397,50.4187249 3.69250642,50.388398 C4.08675503,50.3580712 4.54953436,50.3352277 5.08084441,50.3198673 L5.08084441,50.8322723 Z M3.70353436,47.2698561 C3.04382765,47.2698561 2.51054832,47.408493 2.10448408,47.6853729 C1.69881369,47.9626466 1.45777458,48.3813142 1.38176061,48.9429511 C1.51094497,48.9508282 1.64170475,48.9563422 1.7744338,48.9598869 C1.90716285,48.9642193 2.04225503,48.9732779 2.17852877,48.9882444 C2.22421592,48.6550433 2.37230531,48.3986439 2.62240307,48.2202277 C2.87289469,48.0422053 3.22578855,47.9528003 3.68108464,47.9528003 C4.15883045,47.9528003 4.5117243,48.0685936 4.73937235,48.2997863 C4.96702039,48.5313729 5.08084441,48.867331 5.08084441,49.3072668 L5.08084441,49.6715824 C4.62554832,49.6869427 4.16079972,49.707817 3.6865986,49.7338115 C3.21239749,49.7605936 2.78191425,49.8346383 2.39475503,49.9555517 C2.00798966,50.0772528 1.69290587,50.2655154 1.45029134,50.5191578 C1.20728296,50.773588 1.0859757,51.1394791 1.0859757,51.6176187 C1.0859757,51.8984372 1.13520754,52.1489288 1.23406508,52.3686997 C1.33252877,52.5888645 1.47116564,52.7727947 1.64958184,52.9208841 C1.82760419,53.0685796 2.04028575,53.1824036 2.28683883,53.2619623 C2.5333919,53.3419148 2.80475782,53.3816941 3.10054274,53.3816941 C3.56332207,53.3816941 3.97135559,53.2851997 4.32385559,53.0914232 C4.67674944,52.8980405 4.94023827,52.6495182 5.11471592,52.3458561 L5.36520754,53.2450265 L5.91148408,53.2450265 L5.91148408,49.4781997 C5.91148408,48.7192416 5.72400922,48.1615433 5.34827179,47.8047109 C4.97292821,47.4482723 4.42428855,47.2698561 3.70353436,47.2698561 L3.70353436,47.2698561 Z" id="Fill-10" fill="#2D2D2D"></path>
                    <path d="M10.6688556,47.2698955 C10.2742131,47.2698955 9.90241425,47.360876 9.55345894,47.5428369 C9.20450363,47.7251916 8.91226341,48.0020715 8.67713212,48.3738704 L8.35850363,47.4408285 L7.86933603,47.4408285 L7.86933603,53.2450659 L8.6999757,53.2450659 L8.6999757,50.3998592 C8.6999757,50.0737475 8.73227179,49.7665408 8.79686397,49.4778453 C8.86106229,49.1895436 8.9654338,48.939052 9.10958464,48.7267642 C9.25373547,48.5144765 9.44160419,48.3455128 9.67319078,48.220267 C9.90438352,48.0954151 10.1832327,48.0327922 10.5093444,48.0327922 C10.9646405,48.0327922 11.2946908,48.1540994 11.4994953,48.396714 C11.7042997,48.6397223 11.8070958,49.0186106 11.8070958,49.5349542 L11.8070958,53.2450659 L12.6491573,53.2450659 L12.6491573,49.3982866 C12.6491573,48.7228257 12.4841321,48.1993927 12.1540818,47.8275939 C11.8240316,47.4561888 11.3289561,47.2698955 10.6688556,47.2698955" id="Fill-12" fill="#2D2D2D"></path>
                    <path d="M62.0582355,52.3004053 C61.8116824,52.5508969 61.4532746,52.6761427 60.983012,52.6761427 C60.6411461,52.6761427 60.3587522,52.6095813 60.1350427,52.4768522 C59.9109394,52.3441232 59.7309478,52.1676763 59.5942802,51.9475115 C59.4576126,51.7277405 59.3607243,51.4772489 59.3040092,51.1964304 C59.2469003,50.915612 59.2189366,50.6273103 59.2189366,50.3315254 C59.2189366,50.0436176 59.2469003,49.7588606 59.3040092,49.4780422 C59.3607243,49.1972237 59.4576126,48.9487014 59.5942802,48.7324751 C59.7309478,48.5162489 59.9133025,48.3417712 60.1405567,48.2086483 C60.3682047,48.0763131 60.6529617,48.0097517 60.9944338,48.0097517 C61.449336,48.0097517 61.7967159,48.1310589 62.0353919,48.3736735 C62.2744617,48.6166818 62.4245204,48.9313718 62.485174,49.318531 L63.3158137,49.318531 C63.293364,49.0227461 63.222864,48.7494109 63.1051014,48.4993131 C62.9873388,48.2488215 62.8282215,48.0325953 62.6273556,47.8502405 C62.4264897,47.6682796 62.1909645,47.526098 61.9215679,47.4236958 C61.6525651,47.3208997 61.3508723,47.2700925 61.0168835,47.2700925 C60.5765539,47.2700925 60.1897885,47.3496511 59.8561936,47.5091623 C59.5222047,47.6682796 59.244931,47.8864751 59.0251601,48.163355 C58.8049953,48.4402349 58.6380008,48.7663466 58.5245707,49.1420841 C58.4107466,49.5178215 58.3540316,49.9219165 58.3540316,50.354369 C58.3540316,50.7868215 58.4068081,51.1889472 58.5131489,51.5607461 C58.6194897,51.9321511 58.7825455,52.255112 59.0023165,52.5280534 C59.2224813,52.8009947 59.4973919,53.0156455 59.827836,53.1712182 C60.1578863,53.3263969 60.5426824,53.4043802 60.983012,53.4043802 C61.6730455,53.4043802 62.2252299,53.2125729 62.6387774,52.8297461 C63.051931,52.4465254 63.3004534,51.9439668 63.3839506,51.3216763 L62.5304673,51.3216763 C62.4623304,51.723802 62.3047885,52.0499137 62.0582355,52.3004053" id="Fill-14" fill="#2D2D2D"></path>
                    <path d="M68.9947265,51.1965092 C68.9340729,51.4773277 68.8336399,51.7278193 68.6930338,51.9475902 C68.5528215,52.167755 68.3645589,52.344202 68.1298215,52.476931 C67.8942964,52.6096601 67.6063885,52.6762215 67.2645226,52.6762215 C66.9234444,52.6762215 66.6390813,52.6096601 66.4110394,52.476931 C66.1833913,52.344202 65.9978858,52.1697243 65.8533411,51.953498 C65.7091902,51.7368779 65.606788,51.4863863 65.5461344,51.202417 C65.4854807,50.9176601 65.4555478,50.6273891 65.4555478,50.3316042 C65.4555478,50.0358193 65.4854807,49.749093 65.5461344,49.4722131 C65.606788,49.1953332 65.7091902,48.9487802 65.8533411,48.7325539 C65.9978858,48.5159338 66.1833913,48.34185 66.4110394,48.2087271 C66.6390813,48.0763919 66.9234444,48.0098304 67.2645226,48.0098304 C67.6063885,48.0098304 67.8942964,48.0740288 68.1298215,48.2032131 C68.3645589,48.3323975 68.5528215,48.5049059 68.6930338,48.7211321 C68.8336399,48.9373584 68.9340729,49.1862746 68.9947265,49.4663053 C69.0553802,49.7471237 69.085707,50.0358193 69.085707,50.3316042 C69.085707,50.6273891 69.0553802,50.9156908 68.9947265,51.1965092 M69.2676679,48.1350763 C69.0400198,47.8617411 68.7592014,47.6494534 68.4260003,47.4974254 C68.0916176,47.3461852 67.7083969,47.2697774 67.2763383,47.2697774 C66.851369,47.2697774 66.4720869,47.3481545 66.138098,47.5033332 C65.8041092,47.6589059 65.5236846,47.8731628 65.2956427,48.146498 C65.0679947,48.4194394 64.893517,48.7435818 64.7722098,49.1197131 C64.6509025,49.4950567 64.5906427,49.9066349 64.5906427,50.3540539 C64.5906427,50.7869003 64.6473578,51.1886321 64.7611818,51.5608249 C64.874612,51.9322299 65.0435757,52.2551908 65.2672852,52.5281321 C65.4909947,52.8010735 65.7682684,53.0157243 66.0983187,53.1712969 C66.4279751,53.3264757 66.8131651,53.4040651 67.2534947,53.4040651 C67.6934304,53.4040651 68.0825589,53.3264757 68.4200925,53.1712969 C68.7572321,53.0157243 69.0400198,52.7991042 69.2676679,52.5222243 C69.4953159,52.2453444 69.6662489,51.9192327 69.7800729,51.5434953 C69.8938969,51.1681517 69.9510059,50.7636628 69.9510059,50.3316042 C69.9510059,49.8916684 69.8938969,49.4836349 69.7800729,49.1078975 C69.6662489,48.7325539 69.4953159,48.4080176 69.2676679,48.1350763" id="Fill-16" fill="#2D2D2D"></path>
                    <path d="M77.8487782,47.2698955 C77.4163257,47.2698955 77.038619,47.3707223 76.7164458,47.5715883 C76.3938788,47.7724542 76.1264514,48.0513034 75.9141637,48.4081358 C75.7924626,48.0513034 75.5931721,47.7724542 75.316686,47.5715883 C75.0394123,47.3707223 74.6699765,47.2698955 74.2068034,47.2698955 C73.8275212,47.2698955 73.4860492,47.3667838 73.1823872,47.5601665 C72.879119,47.753943 72.6211441,48.0209765 72.4084626,48.3624486 L72.0788061,47.4408285 L71.5892447,47.4408285 L71.5892447,53.2450659 L72.4313061,53.2450659 L72.4313061,50.0355436 C72.4313061,49.7243983 72.4769933,49.4439737 72.5683676,49.1934821 C72.6589542,48.9429905 72.778686,48.7307028 72.9267754,48.5562251 C73.0744709,48.3813536 73.2469793,48.2466553 73.4443006,48.1517363 C73.6416218,48.0572112 73.8464263,48.0099486 74.0591078,48.0099486 C74.4687168,48.0099486 74.7664709,48.1277112 74.9523704,48.3624486 C75.1382698,48.5979737 75.2312196,48.9658341 75.2312196,49.4664235 L75.2312196,53.2450659 L76.0622531,53.2450659 L76.0622531,49.7736302 C76.0622531,49.5235324 76.1075464,49.2899765 76.1989207,49.0737503 C76.2895073,48.857524 76.4112084,48.6700492 76.5628425,48.510538 C76.7144765,48.3510268 76.8889542,48.2281441 77.0862754,48.1407084 C77.2832028,48.0532726 77.4844626,48.0099486 77.6896609,48.0099486 C78.1067531,48.0099486 78.4064765,48.1237726 78.5888313,48.3510268 C78.7707922,48.5786749 78.8617726,48.9508676 78.8617726,49.4664235 L78.8617726,53.2450659 L79.6928061,53.2450659 L79.6928061,49.2958844 C79.6928061,48.643267 79.5388089,48.1426777 79.2316022,47.7933285 C78.9243955,47.4443732 78.4635855,47.2698955 77.8487782,47.2698955" id="Fill-18" fill="#2D2D2D"></path>
                    <path d="M85.4970042,52.0330961 C85.2012193,52.4616101 84.7648282,52.6762609 84.1882249,52.6762609 C83.8621131,52.6762609 83.5868087,52.6156073 83.3630992,52.4939061 C83.1393897,52.3725989 82.9550656,52.2040291 82.8113087,51.9874089 C82.666764,51.7711827 82.5627863,51.5136017 82.4981941,51.2134844 C82.433602,50.9137609 82.4016997,50.5817413 82.4016997,50.2178196 C82.4016997,49.9066743 82.4391159,49.6183726 82.5155237,49.3525207 C82.5911439,49.0874564 82.7069372,48.8539006 82.8625098,48.6526408 C83.0176885,48.4517749 83.2094958,48.294233 83.4371439,48.1804089 C83.6647919,48.0669788 83.9267053,48.0098698 84.2224902,48.0098698 C84.7534064,48.0098698 85.1728617,48.2111296 85.4800684,48.6128615 C85.7872751,49.015381 85.9408785,49.5841073 85.9408785,50.3198279 C85.9408785,51.0334927 85.7927891,51.6041883 85.4970042,52.0330961 M86.2027919,48.1634732 C85.9975936,47.8865933 85.7396187,47.6683978 85.4288673,47.5092804 C85.1177221,47.3493754 84.7498617,47.2698168 84.3244986,47.2698168 C83.9148897,47.2698168 83.5450601,47.3611911 83.2150098,47.543152 C82.8849595,47.7251128 82.6139874,47.9834816 82.4016997,48.3170765 L82.1397863,47.4407497 L81.5935098,47.4407497 L81.5935098,55.4872022 L82.4241494,55.4872022 L82.4241494,52.4596408 C82.6364372,52.7786631 82.9058338,53.0157637 83.2323394,53.1713363 C83.5584511,53.3265151 83.9038617,53.4041045 84.2677835,53.4041045 C84.6848757,53.4041045 85.0511606,53.3265151 85.3662444,53.1713363 C85.6809344,53.0157637 85.944817,52.7991436 86.1571047,52.5222637 C86.3693925,52.2453838 86.5308729,51.9173028 86.6407584,51.5380207 C86.7510377,51.1583447 86.8057835,50.7487358 86.8057835,50.3088 C86.8057835,49.8917078 86.7561578,49.4986408 86.6576941,49.1307804 C86.5592304,48.7629201 86.4075964,48.4403531 86.2027919,48.1634732" id="Fill-20" fill="#2D2D2D"></path>
                    <path d="M92.0067536,50.8322723 C92.0067536,51.082764 91.9689436,51.3198645 91.8933235,51.543574 C91.8173095,51.7672835 91.6999408,51.9646047 91.5400358,52.1355377 C91.3809184,52.3060768 91.1816279,52.4407751 90.942952,52.5392388 C90.7034883,52.6380964 90.4246391,52.6873282 90.1064045,52.6873282 C89.7038849,52.6873282 89.3966782,52.5928031 89.1843905,52.4025712 C88.9721028,52.2131271 88.865762,51.947669 88.865762,51.6061969 C88.865762,51.3253785 88.9283849,51.1032444 89.0536307,50.9401885 C89.1784827,50.7771327 89.3722592,50.6522807 89.6341726,50.564845 C89.896086,50.4778031 90.224167,50.4187249 90.6184156,50.388398 C91.0130581,50.3580712 91.4754436,50.3352277 92.0067536,50.3198673 L92.0067536,50.8322723 Z M90.6298374,47.2698561 C89.9697369,47.2698561 89.4368514,47.408493 89.0307872,47.6853729 C88.6247229,47.9626466 88.3840777,48.3813142 88.3080637,48.9429511 C88.437248,48.9508282 88.5680078,48.9563422 88.7007369,48.9598869 C88.8330721,48.9642193 88.9681642,48.9732779 89.1048318,48.9882444 C89.1501251,48.6550433 89.2982145,48.3986439 89.5487061,48.2202277 C89.7991978,48.0422053 90.1516978,47.9528003 90.6069939,47.9528003 C91.0851335,47.9528003 91.4380274,48.0685936 91.6656754,48.2997863 C91.8933235,48.5313729 92.0067536,48.867331 92.0067536,49.3072668 L92.0067536,49.6715824 C91.5518514,49.6869427 91.0867089,49.707817 90.6129017,49.7338115 C90.1387006,49.7605936 89.7078235,49.8346383 89.3210581,49.9555517 C88.9338989,50.0772528 88.6188151,50.2655154 88.3762006,50.5191578 C88.133586,50.773588 88.0118849,51.1394791 88.0118849,51.6176187 C88.0118849,51.8984372 88.0611168,52.1489288 88.1599743,52.3686997 C88.258438,52.5888645 88.3970749,52.7727947 88.5754911,52.9208841 C88.7535134,53.0685796 88.966195,53.1824036 89.212748,53.2619623 C89.4593011,53.3419148 89.730667,53.3816941 90.0268458,53.3816941 C90.4892313,53.3816941 90.8972648,53.2851997 91.2501587,53.0914232 C91.6030525,52.8980405 91.8665413,52.6495182 92.041019,52.3458561 L92.2915106,53.2450265 L92.8377872,53.2450265 L92.8377872,49.4781997 C92.8377872,48.7192416 92.6499184,48.1615433 92.2745749,47.8047109 C91.8988374,47.4482723 91.3505916,47.2698561 90.6298374,47.2698561 L90.6298374,47.2698561 Z" id="Fill-22" fill="#2D2D2D"></path>
                    <path d="M97.5949617,47.2698955 C97.2003193,47.2698955 96.8285204,47.360876 96.4795651,47.5428369 C96.1306098,47.7251916 95.8383696,48.0020715 95.6032383,48.3738704 L95.2846098,47.4408285 L94.7954422,47.4408285 L94.7954422,53.2450659 L95.6260818,53.2450659 L95.6260818,50.3998592 C95.6260818,50.0737475 95.6583779,49.7665408 95.7225763,49.4778453 C95.7871684,49.1895436 95.8915399,48.939052 96.0356908,48.7267642 C96.1798416,48.5144765 96.3677103,48.3455128 96.5992969,48.220267 C96.8304897,48.0954151 97.1093388,48.0327922 97.4358444,48.0327922 C97.8907466,48.0327922 98.2207969,48.1540994 98.4256014,48.396714 C98.6307997,48.6397223 98.733202,49.0186106 98.733202,49.5349542 L98.733202,53.2450659 L99.5752634,53.2450659 L99.5752634,49.3982866 C99.5752634,48.7228257 99.4102383,48.1993927 99.080188,47.8275939 C98.7501377,47.4561888 98.2550623,47.2698955 97.5949617,47.2698955" id="Fill-24" fill="#2D2D2D"></path>
                    <path d="M105.288205,47.4406709 C104.99242,48.2449223 104.696635,49.0436598 104.400457,49.8364894 C104.104672,50.629319 103.804948,51.4280564 103.50168,52.231914 C103.182658,51.4280564 102.864423,50.629319 102.545401,49.8364894 C102.227166,49.0436598 101.908144,48.2449223 101.589515,47.4406709 L100.65608,47.4406709 C101.066082,48.4119168 101.470177,49.3752855 101.868365,50.3315648 C102.266552,51.2878441 102.667102,52.2472743 103.068834,53.210643 C102.962887,53.476495 102.869937,53.7076877 102.789985,53.9050089 C102.710426,54.1023302 102.626929,54.2673553 102.539493,54.4000844 C102.452451,54.5328134 102.352018,54.6336402 102.238194,54.7021709 C102.12437,54.769914 101.980219,54.8041793 101.805742,54.8041793 C101.676557,54.8041793 101.551705,54.7947268 101.430004,54.7758218 C101.308697,54.7565229 101.213778,54.7281654 101.145641,54.6903553 C101.122797,54.8116626 101.103892,54.9294251 101.088926,55.0432492 C101.073566,55.1570732 101.058599,55.2748358 101.043239,55.396143 C101.149186,55.426076 101.270887,55.4567966 101.407161,55.4871235 C101.543828,55.5174503 101.714761,55.5328106 101.919566,55.5328106 C102.192901,55.5328106 102.424094,55.4871235 102.613932,55.396143 C102.803376,55.3051626 102.966432,55.1744028 103.103099,55.0034698 C103.239767,54.8329307 103.359499,54.6277324 103.461507,54.3890564 C103.564303,54.1495927 103.672219,53.8821654 103.786437,53.5863804 C104.188169,52.5623581 104.59187,51.5399112 104.998328,50.5190397 C105.403999,49.4989559 105.80061,48.4725704 106.187376,47.4406709 L105.288205,47.4406709 Z" id="Fill-26" fill="#2D2D2D"></path>
                    <path d="M39.7421103,55.0612877 C37.3435349,56.0514385 34.7366103,56.5291844 32.3656047,56.5291844 C28.850845,56.5291844 25.4487277,55.5918101 22.6948953,54.0356899 C22.4558254,53.8966592 22.2778031,54.1380922 22.4766997,54.3145391 C25.0269092,56.5520279 28.3994874,57.896648 32.1411075,57.896648 C34.8122304,57.896648 37.9122612,57.0825503 40.0528617,55.5457291 C40.4085126,55.2916927 40.1028813,54.9135922 39.7421103,55.0612877" id="Fill-28" fill="#2D2D2D"></path>
                    <path d="M38.3928427,54.1972492 C38.2033986,54.3268274 38.2364824,54.5024866 38.4440439,54.4784615 C39.1348651,54.3989028 40.6701109,54.2200927 40.9446277,54.5592017 C41.2187506,54.8994922 40.6378148,56.3012212 40.3829908,56.9302073 C40.3014628,57.1176821 40.4700327,57.1948777 40.6464796,57.0515145 C41.7949601,56.1188665 42.0903511,54.1649531 41.8571891,53.8813777 C41.6212701,53.6037101 39.6169433,53.3595201 38.3928427,54.1972492" id="Fill-30" fill="#2D2D2D"></path>
                    <path d="M42.5808578,51.8249439 C41.9270589,51.4669299 41.1661316,51.3633461 40.443802,51.3794941 L42.3835366,48.6863154 C42.5639221,48.4456701 42.6651427,48.2932483 42.6659304,48.174698 L42.6659304,47.480726 C42.6659304,47.3594187 42.5733746,47.2755277 42.4493103,47.2755277 L38.7041455,47.2755277 C38.5895338,47.2755277 38.4938271,47.3578433 38.4938271,47.4819075 L38.4938271,48.2932483 C38.4938271,48.4145556 38.5895338,48.4984466 38.7104472,48.4984466 L40.6675115,48.4984466 L38.4189947,51.6307735 C38.2831148,51.8328209 38.2787824,52.0569243 38.2787824,52.1896534 L38.2787824,53.0139913 C38.2787824,53.1325416 38.4170254,53.2699969 38.5454221,53.1998908 C39.8211176,52.5441226 41.3496679,52.6059578 42.5040561,53.1951645 C42.64545,53.2652707 42.7797545,53.1278154 42.7797545,53.0096589 L42.7797545,52.1408154 C42.767545,52.0258098 42.7297349,51.9045025 42.5808578,51.8249439" id="Fill-32" fill="#2D2D2D"></path>
                    <path d="M23.6891422,53.3649553 L24.8313209,53.3649553 C24.9514466,53.3649553 25.0499103,53.2747626 25.0499103,53.1609385 L25.0499103,50.1475559 C25.0499103,49.4902123 25.0176142,48.5804078 25.8376198,48.5804078 C26.6465975,48.5804078 26.5414383,49.5146313 26.5414383,50.1475559 L26.5414383,53.1609385 C26.5414383,53.2712179 26.631631,53.3582598 26.7434858,53.3649553 L27.8836953,53.3649553 C28.0057902,53.3649553 28.1030723,53.2747626 28.1030723,53.1609385 L28.1030723,50.1475559 C28.1030723,49.824595 28.0920444,49.3480307 28.2105947,49.0597291 C28.3267818,48.7718212 28.613902,48.5926173 28.8892064,48.5926173 C29.2204383,48.5926173 29.4756561,48.7009274 29.5615165,49.0837542 C29.6127176,49.3110084 29.5922372,49.9088799 29.5922372,50.1475559 L29.5930249,53.1609385 C29.5930249,53.2712179 29.682036,53.3582598 29.7966478,53.3649553 L30.934888,53.3649553 C31.0554075,53.3649553 31.1550528,53.2747626 31.1550528,53.1609385 L31.1566282,49.5741034 C31.1566282,48.9652039 31.2314606,48.2696564 30.8702958,47.7911229 C30.5508796,47.3614274 30.0282344,47.1711955 29.5485193,47.1711955 C28.8785723,47.1711955 28.2499802,47.5043966 27.9754634,48.222 C27.6568349,47.5043966 27.2094159,47.1711955 26.4953573,47.1711955 C25.7919327,47.1711955 25.2736198,47.5043966 24.9959522,48.222 L24.9758656,48.222 L24.9758656,47.4819469 C24.9675947,47.3767877 24.8785835,47.2944721 24.7655472,47.2877765 L23.7072595,47.2877765 C23.5867399,47.2877765 23.4870947,47.381514 23.4870947,47.4949441 L23.4870947,53.1782682 C23.4965472,53.2775196 23.581226,53.3582598 23.6891422,53.3649553" id="Fill-34" fill="#2D2D2D"></path>
                    <path d="M45.8919947,52.3135601 C44.999126,52.3135601 45.0077908,50.8287277 45.0077908,50.1355433 C45.0077908,49.4431466 45.0617489,48.3312947 45.9026288,48.3312947 C46.265369,48.3312947 46.5194053,48.484898 46.6489835,48.8803282 C46.7958913,49.3360182 46.8159779,49.908683 46.8159779,50.3887919 C46.8159779,51.1186047 46.7734416,52.3135601 45.8919947,52.3135601 M45.8919947,47.1713925 C44.2429249,47.1713925 43.328788,48.5455517 43.328788,50.3139595 C43.328788,52.0729148 44.2318969,53.4848841 45.8919947,53.4848841 C47.4871064,53.4848841 48.5001008,52.1087556 48.5001008,50.3773701 C48.5001008,48.5806047 47.5828131,47.1713925 45.8919947,47.1713925" id="Fill-36" fill="#2D2D2D"></path>
                    <path d="M52.4030832,47.1712349 C51.6153737,47.1712349 51.1675609,47.5414584 50.8489324,48.3169584 L50.8272704,48.3169584 L50.8272704,47.4496902 C50.8071838,47.3614668 50.7248682,47.2933299 50.6236475,47.2878159 L49.5692983,47.2878159 C49.4558682,47.2878159 49.3589799,47.3728885 49.3499212,47.4752908 L49.3518905,53.1605841 C49.3518905,53.2712573 49.4424771,53.3582992 49.5563011,53.3649947 L50.6906028,53.3649947 C50.8138793,53.3649947 50.9115553,53.274802 50.9151,53.1605841 L50.9151,50.1003327 C50.9151,49.7175059 50.934005,49.3705198 51.0935162,49.0255031 C51.2230944,48.7470478 51.4791,48.5682377 51.7547983,48.5682377 C52.5397508,48.5682377 52.4664939,49.4768606 52.4664939,50.1003327 L52.4664939,53.1877601 C52.4790972,53.2842545 52.5641698,53.3582992 52.6693291,53.3649947 L53.8130832,53.3649947 C53.9241503,53.3649947 54.0159184,53.2874053 54.0308849,53.1877601 L54.0308849,49.6115589 C54.0308849,49.0597684 54.0308849,48.2949025 53.7315553,47.8384249 C53.412533,47.3512265 52.9131251,47.1712349 52.4030832,47.1712349" id="Fill-38" fill="#2D2D2D"></path>
                    <path d="M35.5069902,50.6522807 C35.5069902,51.082764 35.5172304,51.4419595 35.2947025,51.8263617 C35.1135293,52.1371131 34.8256215,52.3297081 34.5062053,52.3297081 C34.0686327,52.3297081 33.8145964,52.0055656 33.8145964,51.5258506 C33.8145964,50.5821746 34.6826522,50.4108478 35.5069902,50.4108478 L35.5069902,50.6522807 Z M35.5069902,49.5238869 C34.8457081,49.5955684 33.9839539,49.6451941 33.3632388,49.9063198 C32.649574,50.2060433 32.1505601,50.8180936 32.1505601,51.717264 C32.1505601,52.8681075 32.8973087,53.4431355 33.8551634,53.4431355 C34.6665042,53.4431355 35.1091969,53.2556606 35.7342444,52.6377025 C35.9418059,52.9287612 36.009155,53.0705489 36.3856802,53.3769679 C36.4707528,53.4187165 36.5818198,53.4163534 36.6558645,53.349398 L36.6566522,53.3529427 C36.8866634,53.1568031 37.299817,52.8074539 37.5341606,52.6176159 C37.6267165,52.5439651 37.608993,52.4254148 37.5377053,52.3230126 C37.3293561,52.0433757 37.1076159,51.8169092 37.1076159,51.2985964 L37.1076159,49.5727249 C37.1076159,48.8385796 37.1580293,48.170602 36.6062388,47.6680433 C36.1686662,47.2607975 35.4443673,47.1154651 34.8890321,47.1154651 C33.8031746,47.1154651 32.5940405,47.508926 32.3415796,48.8121913 C32.3132221,48.9476774 32.4168059,49.0221159 32.511331,49.0422025 L33.6153059,49.1579958 C33.7196774,49.1528757 33.7929344,49.054412 33.8145964,48.9531913 C33.9083338,48.5065601 34.2950992,48.2899399 34.7299148,48.2899399 C34.9638645,48.2899399 35.2320796,48.3742249 35.3687472,48.5790293 C35.5290461,48.8054958 35.5069902,49.1178226 35.5069902,49.3813115 L35.5069902,49.5238869 Z" id="Fill-40" fill="#2D2D2D"></path>
                    <path d="M20.5680402,50.6522807 C20.5680402,51.082764 20.579462,51.4419595 20.3557525,51.8263617 C20.1737916,52.1371131 19.8866715,52.3297081 19.5664676,52.3297081 C19.1292888,52.3297081 18.8744648,52.0055656 18.8744648,51.5258506 C18.8744648,50.5821746 19.7425207,50.4108478 20.5680402,50.4108478 L20.5680402,50.6522807 Z M22.596786,52.3230126 C22.3896184,52.0433757 22.1659089,51.8169092 22.1659089,51.2985964 L22.1659089,49.5727249 C22.1659089,48.8385796 22.2206547,48.170602 21.6672888,47.6680433 C21.2297162,47.2607975 20.5054173,47.1154651 19.9485067,47.1154651 C18.8650123,47.1154651 17.6546966,47.508926 17.4010542,48.8121913 C17.3734844,48.9476774 17.4786436,49.0221159 17.572381,49.0422025 L18.6763559,49.1579958 C18.7799397,49.1528757 18.8539844,49.054412 18.8744648,48.9531913 C18.9701715,48.5065601 19.3561492,48.2899399 19.7889955,48.2899399 C20.0257022,48.2899399 20.2915542,48.3742249 20.4305849,48.5790293 C20.5897022,48.8054958 20.5680402,49.1178226 20.5680402,49.3813115 L20.5680402,49.5238869 C19.9075458,49.5955684 19.0457916,49.6451941 18.4262581,49.9063198 C17.7098363,50.2060433 17.2104285,50.8180936 17.2104285,51.717264 C17.2104285,52.8681075 17.9563894,53.4431355 18.9154257,53.4431355 C19.7263726,53.4431355 20.1698531,53.2556606 20.793719,52.6377025 C21.0012804,52.9287612 21.070205,53.0705489 21.4483056,53.3769679 C21.5318028,53.4187165 21.6409006,53.4163534 21.7165207,53.349398 L21.7204592,53.3529427 C21.946138,53.1568031 22.360867,52.8074539 22.5924536,52.6176159 C22.6857972,52.5439651 22.6692553,52.4254148 22.596786,52.3230126 L22.596786,52.3230126 Z" id="Fill-42" fill="#2D2D2D"></path>
                    <path d="M31.0491059,33.9270025 C31.0491059,34.9663852 30.0392623,36.7859941 26.9518349,36.7859941 C25.5028433,36.7859941 23.0408573,36.0171897 23.0408573,33.0380723 L23.0408573,20.7694969 L18.9624913,20.7694969 L18.9624913,33.1897064 C18.9624913,37.8612176 21.669455,40.4772008 25.5619215,40.4772008 C28.2684913,40.4772008 30.0853433,39.2330137 31.1971953,37.8982399 L32.7544969,40.0486869 L35.1274718,40.0486869 L35.1274718,20.7694969 L31.0491059,20.7694969 L31.0491059,33.9270025 Z" id="Fill-44" fill="#2D2D2D"></path>
                    <path d="M77.3737894,33.101798 C77.3737894,35.4003344 75.4675324,36.7725243 73.5490659,36.7725243 C71.0283955,36.7725243 69.2028788,35.5563008 69.2662894,32.9481947 L69.2655017,32.9481947 L69.2655017,27.6650271 C69.2655017,25.561055 70.9059067,24.018326 73.5853006,24.018326 C75.4675324,24.018326 77.3737894,25.3901221 77.3737894,27.6890522 L77.3737894,33.101798 Z M74.5502447,20.3109712 C71.943714,20.3109712 70.1697922,21.4972617 69.2655017,22.6465299 L69.2655017,13.8966528 L65.2832363,13.8966528 L65.2832363,40.0348232 L67.5998899,40.0348232 L69.0839346,37.8843763 C70.1697922,39.2195439 72.0161832,40.4798791 74.6951832,40.4798791 C78.2784737,40.4798791 81.355267,38.2553874 81.355267,33.3983707 L81.355267,27.3924796 C81.355267,22.5354628 78.3147084,20.3109712 74.5502447,20.3109712 L74.5502447,20.3109712 Z" id="Fill-46" fill="#2D2D2D"></path>
                    <path d="M50.0290844,32.9619008 L50.0282966,32.9619008 C50.0917073,35.570007 48.2657966,36.7862304 45.7455201,36.7862304 C43.8266598,36.7862304 41.9207966,35.4140405 41.9207966,33.1155042 L41.9207966,27.7023645 C41.9207966,25.4038282 43.8266598,24.0320321 45.7092855,24.0320321 C48.3882855,24.0320321 50.0290844,25.5747612 50.0290844,27.6787332 L50.0290844,32.9619008 Z M50.0290844,22.660236 C49.1244,21.5109679 47.3504782,20.3246774 44.7439475,20.3246774 C40.9794838,20.3246774 37.9389251,22.549169 37.9389251,27.4057919 L37.9389251,33.4120768 C37.9389251,38.2690936 41.0157184,40.4935852 44.5994028,40.4935852 C47.2784028,40.4935852 49.1244,39.2328561 50.2102575,37.8980824 L51.6946961,40.0485293 L54.0109559,40.0485293 L54.0109559,13.9103589 L50.0290844,13.9103589 L50.0290844,22.660236 Z" id="Fill-48" fill="#2D2D2D"></path>
                    <mask id="mask-2" fill="white">
                        <use xlink:href="#path-1"></use>
                    </mask>
                    <g id="Clip-51"></g>
                    <path d="M84.122648,40.0487263 L88.201014,40.0487263 L88.201014,13.9105559 L84.122648,13.9105559 L84.122648,40.0487263 Z" id="Fill-50" fill="#2D2D2D" mask="url(#mask-2)"></path>
                    <path d="M57.6619106,40.0487263 L61.7402765,40.0487263 L61.7402765,20.7695363 L57.6619106,20.7695363 L57.6619106,40.0487263 Z" id="Fill-52" fill="#2D2D2D" mask="url(#mask-2)"></path>
                    <path d="M59.7010936,13.8064207 C58.4198841,13.8064207 57.3812891,14.8450156 57.3812891,16.1262251 C57.3812891,17.4074346 58.4198841,18.4460296 59.7010936,18.4460296 C60.9823031,18.4460296 62.020898,17.4074346 62.020898,16.1262251 C62.020898,14.8450156 60.9823031,13.8064207 59.7010936,13.8064207" id="Fill-53" fill="#2D2D2D" mask="url(#mask-2)"></path>
                    <path d="M95.2711006,27.4059494 C95.2711006,25.4039858 96.6425028,24.0317958 99.2746341,24.0317958 C101.907159,24.0317958 103.278955,25.4039858 103.278955,27.4059494 L103.278955,28.6292623 L95.2711006,28.6292623 L95.2711006,27.4059494 Z M107.357321,31.7438656 L107.357321,27.4059494 C107.357321,22.9569662 104.242718,20.3244411 99.4231173,20.3244411 C94.4180112,20.3244411 91.1927346,23.1050556 91.1927346,27.4799941 L91.1927346,33.4118405 C91.1927346,37.8612176 94.4180112,40.4933489 99.4231173,40.4933489 C103.174978,40.4933489 105.866581,38.9833098 106.994975,36.4015919 L104.03555,34.573712 C102.983958,36.0510612 101.525908,36.7859941 99.4231173,36.7859941 C96.6425028,36.7859941 95.2711006,35.3401534 95.2711006,33.3377958 L95.2711006,31.7438656 L107.357321,31.7438656 Z" id="Fill-54" fill="#2D2D2D" mask="url(#mask-2)"></path>
                    <path d="M12.0886626,33.8754075 C12.0571542,34.169617 12.0512464,34.5433852 11.6388804,35.0577595 C11.0165899,35.9415696 9.46362067,36.7859941 7.61683575,36.7859941 C5.68852291,36.7859941 4.28009832,36.0077372 4.28009832,34.3759969 C4.28009832,32.0644634 8.03117095,31.5622986 10.333252,31.471712 L12.0886626,31.471712 L12.0886626,33.8754075 Z M8.45495866,20.3244411 C4.49868771,20.3244411 1.93351173,21.9195528 0.936271508,24.3193098 L4.12295028,26.3023684 C5.45417933,24.1838237 6.72593631,24.0317958 8.45495866,24.0317958 C10.9390006,24.0317958 12.0886626,25.2184802 12.0886626,27.1093768 L12.0886626,28.6162651 L8.6696095,28.6213852 C6.17572123,28.6213852 7.87709497e-05,29.4693545 7.87709497e-05,34.8210528 C7.87709497e-05,38.6028461 2.85670726,40.4933489 6.34192793,40.4933489 C9.08552011,40.4933489 11.1249,39.2330137 12.236752,37.8982399 L13.7940536,40.0486869 L16.1670285,40.0486869 L16.1670285,26.8498265 C16.1670285,23.0680332 13.6455704,20.3244411 8.45495866,20.3244411 L8.45495866,20.3244411 Z" id="Fill-55" fill="#2D2D2D" mask="url(#mask-2)"></path>
                </g>
            </g>
        </g>
    </g>
</svg>